# xmcd
#
# Track frame offsets:
#	150
#	5173
#	18830
#	35535
#	48690
#	64410
#	83635
#	96704
#	113065
#	131202
#	146384
#	162579
#	183461
#	197058
#
# Disc length: 2810 seconds
#
# Revision: 2969750088
# Processed by: cddbd v1.5.2PL0 Copyright (c) Steve Scherf et al.
# Submitted via: EZCDAudioConverter 8.1.0.1
#
DISCID=cd0af80e
DTITLE=Pistol Annies - Interstate Gospel
DYEAR=2018
DGENRE=Country
TTITLE0=Interstate Prelude
TTITLE1=Stop Drop And Roll One
TTITLE2=Best Years Of My Life
TTITLE3=5 Acres Of Turnips
TTITLE4=When I Was His Wife
TTITLE5=Cheyenne
TTITLE6=Got My Name Changed Back
TTITLE7=Sugar Daddy
TTITLE8=Leavers Lullaby
TTITLE9=Milkman
TTITLE10=Commissary
TTITLE11=Masterpiece
TTITLE12=Interstate Gospel
TTITLE13=This Too Shall Pass
EXTD=
EXTT0=
EXTT1=
EXTT2=
EXTT3=
EXTT4=
EXTT5=
EXTT6=
EXTT7=
EXTT8=
EXTT9=
EXTT10=
EXTT11=
EXTT12=
EXTT13=
PLAYORDER=
